<svg width="35" height="36" viewBox="0 0 35 36" fill="none" xmlns="http://www.w3.org/2000/svg">
<rect y="0.5" width="35" height="35" rx="17.5" fill="#DFF8F8"/>
<path d="M24.2082 26.625V24.7083C24.2082 23.6917 23.8043 22.7166 23.0854 21.9978C22.3665 21.2789 21.3915 20.875 20.3748 20.875H14.6248C13.6082 20.875 12.6332 21.2789 11.9143 21.9978C11.1954 22.7166 10.7915 23.6917 10.7915 24.7083V26.625" stroke="#4DB1AE" stroke-width="1.5" stroke-linecap="round" stroke-linejoin="round"/>
<path d="M17.4998 17.0417C19.6169 17.0417 21.3332 15.3254 21.3332 13.2083C21.3332 11.0912 19.6169 9.375 17.4998 9.375C15.3827 9.375 13.6665 11.0912 13.6665 13.2083C13.6665 15.3254 15.3827 17.0417 17.4998 17.0417Z" stroke="#4DB1AE" stroke-width="1.5" stroke-linecap="round" stroke-linejoin="round"/>
</svg>
